<?xml version="1.0" encoding="UTF-8" standalone="no"?><svg xmlns="http://www.w3.org/2000/svg" xmlns:xlink="http://www.w3.org/1999/xlink" contentStyleType="text/css" height="167px" preserveAspectRatio="none" style="width:355px;height:167px;background:#FFFFFF;" version="1.1" viewBox="0 0 355 167" width="355px" zoomAndPan="magnify"><defs/><g><!--MD5=[78bec0fde86ad92ec1dc3fb343b83709]
class Email--><g id="elem_Email"><rect codeLine="2" fill="#F1F1F1" height="153.6563" id="Email" rx="2.5" ry="2.5" style="stroke:#181818;stroke-width:0.5;" width="190" x="7" y="7"/><ellipse cx="80.75" cy="23" fill="#ADD1B2" rx="11" ry="11" style="stroke:#181818;stroke-width:1.0;"/><path d="M83.5156,18.875 Q83.6719,18.6563 83.8594,18.5469 Q84.0469,18.4375 84.2656,18.4375 Q84.6406,18.4375 84.875,18.7031 Q85.1094,18.9531 85.1094,19.5625 L85.1094,21.0156 Q85.1094,21.625 84.875,21.8906 Q84.6406,22.1563 84.2656,22.1563 Q83.9219,22.1563 83.7188,21.9531 Q83.5156,21.7656 83.4063,21.25 Q83.3594,20.8906 83.1719,20.7031 Q82.8438,20.3281 82.2344,20.1094 Q81.625,19.8906 81,19.8906 Q80.2344,19.8906 79.5938,20.2188 Q78.9688,20.5469 78.4688,21.2969 Q77.9844,22.0469 77.9844,23.0781 L77.9844,24.1719 Q77.9844,25.4063 78.875,26.2344 Q79.7656,27.0469 81.3594,27.0469 Q82.2969,27.0469 82.9531,26.7969 Q83.3438,26.6406 83.7656,26.2031 Q84.0313,25.9375 84.1719,25.8594 Q84.3281,25.7813 84.5313,25.7813 Q84.8594,25.7813 85.1094,26.0469 Q85.375,26.2969 85.375,26.6406 Q85.375,26.9844 85.0313,27.3906 Q84.5313,27.9688 83.7344,28.2969 Q82.6563,28.75 81.3594,28.75 Q79.8438,28.75 78.6406,28.125 Q77.6563,27.625 76.9688,26.5625 Q76.2813,25.4844 76.2813,24.2031 L76.2813,23.0469 Q76.2813,21.7188 76.8906,20.5781 Q77.5156,19.4219 78.6094,18.8125 Q79.7031,18.1875 80.9375,18.1875 Q81.6719,18.1875 82.3125,18.3594 Q82.9688,18.5156 83.5156,18.875 Z " fill="#000000"/><text fill="#000000" font-family="sans-serif" font-size="14" lengthAdjust="spacing" textLength="34" x="101.25" y="28.7285">Email</text><line style="stroke:#181818;stroke-width:0.5;" x1="8" x2="196" y1="39" y2="39"/><rect fill="none" height="6" style="stroke:#C82930;stroke-width:1.0;" width="6" x="15" y="47"/><text fill="#000000" font-family="sans-serif" font-size="14" lengthAdjust="spacing" textLength="50" x="27" y="57.5332">id: UUID</text><rect fill="none" height="6" style="stroke:#C82930;stroke-width:1.0;" width="6" x="15" y="64.6094"/><text fill="#000000" font-family="sans-serif" font-size="14" lengthAdjust="spacing" textLength="105" x="27" y="75.1426">ownerRef: String</text><rect fill="none" height="6" style="stroke:#C82930;stroke-width:1.0;" width="6" x="15" y="82.2188"/><text fill="#000000" font-family="sans-serif" font-size="14" lengthAdjust="spacing" textLength="95" x="27" y="92.752">emailTo: String</text><rect fill="none" height="6" style="stroke:#C82930;stroke-width:1.0;" width="6" x="15" y="99.8281"/><text fill="#000000" font-family="sans-serif" font-size="14" lengthAdjust="spacing" textLength="90" x="27" y="110.3613">subject: String</text><rect fill="none" height="6" style="stroke:#C82930;stroke-width:1.0;" width="6" x="15" y="117.4375"/><text fill="#000000" font-family="sans-serif" font-size="14" lengthAdjust="spacing" textLength="67" x="27" y="127.9707">text: String</text><rect fill="none" height="6" style="stroke:#C82930;stroke-width:1.0;" width="6" x="15" y="135.0469"/><text fill="#000000" font-family="sans-serif" font-size="14" lengthAdjust="spacing" textLength="164" x="27" y="145.5801">sendDate: LocalDateTime</text><line style="stroke:#181818;stroke-width:0.5;" x1="8" x2="196" y1="152.6563" y2="152.6563"/></g><!--MD5=[93d16b3c24034298363f5d71b2940240]
class EmailStatus--><g id="elem_EmailStatus"><rect codeLine="11" fill="#F1F1F1" height="100.8281" id="EmailStatus" rx="2.5" ry="2.5" style="stroke:#181818;stroke-width:0.5;" width="116" x="232" y="33.5"/><ellipse cx="251.5" cy="49.5" fill="#EB937F" rx="11" ry="11" style="stroke:#181818;stroke-width:1.0;"/><path d="M250.3594,50.2969 L250.3594,52.7969 L254.6875,52.7969 L254.6875,51.875 Q254.6875,51.2656 254.9219,51 Q255.1719,50.7344 255.5469,50.7344 Q255.9219,50.7344 256.1563,51 Q256.3906,51.2656 256.3906,51.875 L256.3906,54.5 L248.3906,54.5 Q247.7656,54.5 247.5,54.2656 Q247.25,54.0313 247.25,53.6406 Q247.25,53.2656 247.5156,53.0313 Q247.7813,52.7969 248.3906,52.7969 L248.6563,52.7969 L248.6563,46.1406 L248.3906,46.1406 Q247.7656,46.1406 247.5,45.9063 Q247.25,45.6719 247.25,45.2813 Q247.25,44.9063 247.5,44.6719 Q247.7656,44.4375 248.3906,44.4375 L256.0156,44.4375 L256.0156,47.0313 Q256.0156,47.6406 255.7813,47.9063 Q255.5625,48.1563 255.1719,48.1563 Q254.7969,48.1563 254.5625,47.9063 Q254.3281,47.6406 254.3281,47.0313 L254.3281,46.1406 L250.3594,46.1406 L250.3594,48.5938 L251.8438,48.5938 Q251.8438,47.9375 251.9688,47.75 Q252.2344,47.3438 252.7031,47.3438 Q253.0781,47.3438 253.3125,47.6094 Q253.5469,47.8594 253.5469,48.4688 L253.5469,50.4375 Q253.5469,50.9844 253.4219,51.1719 Q253.1563,51.5625 252.7031,51.5625 Q252.2344,51.5625 251.9688,51.1563 Q251.8438,50.9688 251.8438,50.2969 L250.3594,50.2969 Z " fill="#000000"/><text fill="#000000" font-family="sans-serif" font-size="14" lengthAdjust="spacing" textLength="74" x="266.5" y="55.2285">EmailStatus</text><line style="stroke:#181818;stroke-width:0.5;" x1="233" x2="347" y1="65.5" y2="65.5"/><ellipse cx="243" cy="76.5" fill="none" rx="3" ry="3" style="stroke:#038048;stroke-width:1.0;"/><text fill="#000000" font-family="sans-serif" font-size="14" lengthAdjust="spacing" textLength="90" x="252" y="84.0332">PROCESSING</text><ellipse cx="243" cy="94.1094" fill="none" rx="3" ry="3" style="stroke:#038048;stroke-width:1.0;"/><text fill="#000000" font-family="sans-serif" font-size="14" lengthAdjust="spacing" textLength="36" x="252" y="101.6426">SENT</text><ellipse cx="243" cy="111.7188" fill="none" rx="3" ry="3" style="stroke:#038048;stroke-width:1.0;"/><text fill="#000000" font-family="sans-serif" font-size="14" lengthAdjust="spacing" textLength="50" x="252" y="119.252">ERROR</text><line style="stroke:#181818;stroke-width:0.5;" x1="233" x2="347" y1="126.3281" y2="126.3281"/></g><!--MD5=[421420ef12681547b534882655ff6bf9]
link Email to EmailStatus--><g id="link_Email_EmailStatus"><path codeLine="17" d="M209.1,84 C209.1,84 215.84,84 218.67,84 " fill="none" id="Email-EmailStatus" style="stroke:#181818;stroke-width:1.0;"/><polygon fill="#181818" points="231.94,84,222.94,80,226.94,84,222.94,88,231.94,84" style="stroke:#181818;stroke-width:1.0;"/><line style="stroke:#181818;stroke-width:1.0;" x1="226.94" x2="218.94" y1="84" y2="84"/><polygon fill="none" points="197.1,84,203.1,88,209.1,84,203.1,80,197.1,84" style="stroke:#181818;stroke-width:1.0;"/><text fill="#000000" font-family="sans-serif" font-size="13" lengthAdjust="spacing" textLength="5" x="204.8775" y="80.8853">*</text><text fill="#000000" font-family="sans-serif" font-size="13" lengthAdjust="spacing" textLength="7" x="217.0526" y="80.5036">1</text></g><!--MD5=[32d4e98df89ecd3d859d210737ef50b9]
@startuml Email

class Email {
    - id: UUID
    - ownerRef: String
    - emailTo: String
    - subject: String
    - text: String
    - sendDate: LocalDateTime
}

enum EmailStatus {
    + PROCESSING
    + SENT
    + ERROR
}

Email "*" o-> "1" EmailStatus 
@end

PlantUML version 1.2022.5(Sat Apr 30 07:55:52 BRT 2022)
(GPL source distribution)
Java Runtime: Java(TM) SE Runtime Environment
JVM: Java HotSpot(TM) 64-Bit Server VM
Default Encoding: Cp1252
Language: pt
Country: BR
--></g></svg>