<?xml version="1.0" encoding="UTF-8" standalone="no"?><svg xmlns="http://www.w3.org/2000/svg" xmlns:xlink="http://www.w3.org/1999/xlink" contentStyleType="text/css" height="231px" preserveAspectRatio="none" style="width:540px;height:231px;background:#FFFFFF;" version="1.1" viewBox="0 0 540 231" width="540px" zoomAndPan="magnify"><defs/><g><!--MD5=[78bec0fde86ad92ec1dc3fb343b83709]
class Email--><g id="elem_Email"><rect codeLine="2" fill="#F1F1F1" height="168.0596" id="Email" rx="2.5" ry="2.5" style="stroke:#181818;stroke-width:0.5;" width="190" x="7" y="56.21"/><ellipse cx="80.75" cy="72.21" fill="#ADD1B2" rx="11" ry="11" style="stroke:#181818;stroke-width:1.0;"/><path d="M82.75,68.71 Q82.9531,68.21 83.1875,67.96 Q83.4219,67.71 83.6875,67.71 Q84.1563,67.71 84.4531,67.9913 Q84.75,68.2725 84.75,68.9288 L84.75,70.4913 Q84.75,71.1475 84.4688,71.4288 Q84.1875,71.71 83.75,71.71 Q83.3594,71.71 83.1094,71.5381 Q82.8594,71.3663 82.75,70.9131 Q82.7031,70.6006 82.5313,70.4288 Q82.2188,70.1006 81.6563,69.9131 Q81.0938,69.71 80.5313,69.71 Q79.8281,69.71 79.2344,69.9913 Q78.6563,70.2725 78.2031,70.8975 Q77.75,71.5225 77.75,72.3819 L77.75,73.3038 Q77.75,74.335 78.5938,75.0225 Q79.4375,75.71 80.9375,75.71 Q81.8281,75.71 82.4531,75.5069 Q82.8125,75.3975 83.2188,75.0381 Q83.4844,74.835 83.625,74.7725 Q83.7656,74.71 83.9375,74.71 Q84.2656,74.71 84.5,74.9756 Q84.75,75.2256 84.75,75.585 Q84.75,75.9288 84.4063,76.335 Q83.9063,76.9288 83.1094,77.2569 Q82.0625,77.71 80.7813,77.71 Q79.2813,77.71 78.0781,77.1163 Q77.1094,76.6475 76.4219,75.6319 Q75.75,74.6163 75.75,73.4131 L75.75,72.3194 Q75.75,71.0694 76.3438,69.9756 Q76.9531,68.8819 78,68.3038 Q79.0625,67.71 80.25,67.71 Q80.9688,67.71 81.5938,67.96 Q82.2188,68.21 82.75,68.71 Z " fill="#000000"/><text fill="#000000" font-family="sans-serif" font-size="14" lengthAdjust="spacing" textLength="34" x="101.25" y="77.7095">Email</text><line style="stroke:#181818;stroke-width:0.5;" x1="8" x2="196" y1="88.21" y2="88.21"/><rect fill="none" height="6" style="stroke:#C82930;stroke-width:1.0;" width="6" x="15" y="96.21"/><text fill="#000000" font-family="sans-serif" font-size="14" lengthAdjust="spacing" textLength="50" x="27" y="106.2852">id: UUID</text><rect fill="none" height="6" style="stroke:#C82930;stroke-width:1.0;" width="6" x="15" y="113.3614"/><text fill="#000000" font-family="sans-serif" font-size="14" lengthAdjust="spacing" textLength="105" x="27" y="123.4366">ownerRef: String</text><rect fill="none" height="6" style="stroke:#C82930;stroke-width:1.0;" width="6" x="15" y="130.5127"/><text fill="#000000" font-family="sans-serif" font-size="14" lengthAdjust="spacing" textLength="95" x="27" y="140.5879">emailTo: String</text><rect fill="none" height="6" style="stroke:#C82930;stroke-width:1.0;" width="6" x="15" y="147.6641"/><text fill="#000000" font-family="sans-serif" font-size="14" lengthAdjust="spacing" textLength="90" x="27" y="157.7393">subject: String</text><rect fill="none" height="6" style="stroke:#C82930;stroke-width:1.0;" width="6" x="15" y="164.8155"/><text fill="#000000" font-family="sans-serif" font-size="14" lengthAdjust="spacing" textLength="67" x="27" y="174.8907">text: String</text><rect fill="none" height="6" style="stroke:#C82930;stroke-width:1.0;" width="6" x="15" y="181.9668"/><text fill="#000000" font-family="sans-serif" font-size="14" lengthAdjust="spacing" textLength="80" x="27" y="192.042">fileUrl: String</text><rect fill="none" height="6" style="stroke:#C82930;stroke-width:1.0;" width="6" x="15" y="199.1182"/><text fill="#000000" font-family="sans-serif" font-size="14" lengthAdjust="spacing" textLength="164" x="27" y="209.1934">sendDate: LocalDateTime</text><line style="stroke:#181818;stroke-width:0.5;" x1="8" x2="196" y1="216.2696" y2="216.2696"/></g><!--MD5=[93d16b3c24034298363f5d71b2940240]
class EmailStatus--><g id="elem_EmailStatus"><rect codeLine="12" fill="#F1F1F1" height="99.4541" id="EmailStatus" rx="2.5" ry="2.5" style="stroke:#181818;stroke-width:0.5;" width="116" x="232" y="90.71"/><ellipse cx="251.5" cy="106.71" fill="#EB937F" rx="11" ry="11" style="stroke:#181818;stroke-width:1.0;"/><path d="M250,107.71 L250,109.71 L254,109.71 L254,108.71 L254,108.2256 L254.625,107.71 L255,107.71 L255.375,107.71 L256,108.2256 L256,108.71 L256,111.71 L248,111.71 L247.5156,111.71 L247,111.085 L247,110.71 L247,110.335 L247.5156,109.71 L248,109.71 L248,109.71 L248,103.71 L248,103.71 L247.5156,103.71 L247,103.085 L247,102.71 L247,102.335 L247.5156,101.71 L248,101.71 L256,101.71 L256,104.71 L256,105.1944 L255.375,105.71 L255,105.71 L254.625,105.71 L254,105.1944 L254,104.71 L254,103.71 L250,103.71 L250,105.71 L251,105.71 L251,105.2256 L251,105.2256 L251.625,104.71 L252,104.71 L252.375,104.71 L253,105.2256 L253,105.71 L253,107.71 L253,108.1944 L252.375,108.71 L252.375,108.71 L252,108.71 L251.625,108.71 L251,108.1944 L251,108.1944 L251,107.71 L250,107.71 Z " fill="#000000"/><text fill="#000000" font-family="sans-serif" font-size="14" lengthAdjust="spacing" textLength="74" x="266.5" y="112.2095">EmailStatus</text><line style="stroke:#181818;stroke-width:0.5;" x1="233" x2="347" y1="122.71" y2="122.71"/><ellipse cx="243" cy="133.71" fill="none" rx="3" ry="3" style="stroke:#038048;stroke-width:1.0;"/><text fill="#000000" font-family="sans-serif" font-size="14" lengthAdjust="spacing" textLength="90" x="252" y="140.7852">PROCESSING</text><ellipse cx="243" cy="150.8614" fill="none" rx="3" ry="3" style="stroke:#038048;stroke-width:1.0;"/><text fill="#000000" font-family="sans-serif" font-size="14" lengthAdjust="spacing" textLength="36" x="252" y="157.9366">SENT</text><ellipse cx="243" cy="168.0127" fill="none" rx="3" ry="3" style="stroke:#038048;stroke-width:1.0;"/><text fill="#000000" font-family="sans-serif" font-size="14" lengthAdjust="spacing" textLength="50" x="252" y="175.0879">ERROR</text><line style="stroke:#181818;stroke-width:0.5;" x1="233" x2="347" y1="182.1641" y2="182.1641"/></g><!--MD5=[58579fdda9f3661ec3511f7ee5c01f51]
class EmailType--><g id="elem_EmailType"><rect codeLine="18" fill="#F1F1F1" height="82.3027" id="EmailType" rx="2.5" ry="2.5" style="stroke:#181818;stroke-width:0.5;" width="150" x="383" y="99.21"/><ellipse cx="421.4" cy="115.21" fill="#EB937F" rx="11" ry="11" style="stroke:#181818;stroke-width:1.0;"/><path d="M419.9,116.21 L419.9,118.21 L423.9,118.21 L423.9,117.21 L423.9,116.7256 L424.525,116.21 L424.9,116.21 L425.275,116.21 L425.9,116.7256 L425.9,117.21 L425.9,120.21 L417.9,120.21 L417.4156,120.21 L416.9,119.585 L416.9,119.21 L416.9,118.835 L417.4156,118.21 L417.9,118.21 L417.9,118.21 L417.9,112.21 L417.9,112.21 L417.4156,112.21 L416.9,111.585 L416.9,111.21 L416.9,110.835 L417.4156,110.21 L417.9,110.21 L425.9,110.21 L425.9,113.21 L425.9,113.6944 L425.275,114.21 L424.9,114.21 L424.525,114.21 L423.9,113.6944 L423.9,113.21 L423.9,112.21 L419.9,112.21 L419.9,114.21 L420.9,114.21 L420.9,113.7256 L420.9,113.7256 L421.525,113.21 L421.9,113.21 L422.275,113.21 L422.9,113.7256 L422.9,114.21 L422.9,116.21 L422.9,116.6944 L422.275,117.21 L422.275,117.21 L421.9,117.21 L421.525,117.21 L420.9,116.6944 L420.9,116.6944 L420.9,116.21 L419.9,116.21 Z " fill="#000000"/><text fill="#000000" font-family="sans-serif" font-size="14" lengthAdjust="spacing" textLength="66" x="440.6" y="120.7095">EmailType</text><line style="stroke:#181818;stroke-width:0.5;" x1="384" x2="532" y1="131.21" y2="131.21"/><ellipse cx="394" cy="142.21" fill="none" rx="3" ry="3" style="stroke:#038048;stroke-width:1.0;"/><text fill="#000000" font-family="sans-serif" font-size="14" lengthAdjust="spacing" textLength="63" x="403" y="149.2852">DEFAULT</text><ellipse cx="394" cy="159.3614" fill="none" rx="3" ry="3" style="stroke:#038048;stroke-width:1.0;"/><text fill="#000000" font-family="sans-serif" font-size="14" lengthAdjust="spacing" textLength="124" x="403" y="166.4366">RESET_PASSWOR</text><line style="stroke:#181818;stroke-width:0.5;" x1="384" x2="532" y1="173.5127" y2="173.5127"/></g><!--MD5=[cd9ff563b121cdd638f8f55bddd3768f]
link Email to EmailType--><g id="link_Email_EmailType"><path codeLine="23" d="M190.6385,48.9059 C190.6385,48.9059 218.2,31.58 232.5,26.21 C280.77,8.1 301.07,6 348.5,26.21 C378.74,39.09 404.65,64.88 423.67,88.67 " fill="none" id="Email-EmailType" style="stroke:#181818;stroke-width:1.0;"/><polygon fill="#181818" points="431.65,99.05,429.3299,89.4783,428.6001,95.0879,422.9905,94.3581,431.65,99.05" style="stroke:#181818;stroke-width:1.0;"/><line style="stroke:#181818;stroke-width:1.0;" x1="428.6001" x2="423.725" y1="95.0879" y2="88.745"/><polygon fill="none" points="180.96,56,188.164,55.6791,190.6385,48.9059,183.4346,49.2268,180.96,56" style="stroke:#181818;stroke-width:1.0;"/><text fill="#000000" font-family="sans-serif" font-size="13" lengthAdjust="spacing" textLength="5" x="183.2476" y="45.37">*</text><text fill="#000000" font-family="sans-serif" font-size="13" lengthAdjust="spacing" textLength="7" x="419.1464" y="88.2056">1</text></g><!--MD5=[421420ef12681547b534882655ff6bf9]
link Email to EmailStatus--><g id="link_Email_EmailStatus"><path codeLine="24" d="M209.1,140.21 C209.1,140.21 215.84,140.21 218.67,140.21 " fill="none" id="Email-EmailStatus" style="stroke:#181818;stroke-width:1.0;"/><polygon fill="#181818" points="231.94,140.21,222.94,136.21,226.94,140.21,222.94,144.21,231.94,140.21" style="stroke:#181818;stroke-width:1.0;"/><line style="stroke:#181818;stroke-width:1.0;" x1="226.94" x2="218.94" y1="140.21" y2="140.21"/><polygon fill="none" points="197.1,140.21,203.1,144.21,209.1,140.21,203.1,136.21,197.1,140.21" style="stroke:#181818;stroke-width:1.0;"/><text fill="#000000" font-family="sans-serif" font-size="13" lengthAdjust="spacing" textLength="5" x="204.8775" y="137.7167">*</text><text fill="#000000" font-family="sans-serif" font-size="13" lengthAdjust="spacing" textLength="7" x="217.0526" y="137.3491">1</text></g><!--MD5=[ebe41511c344565b1c068afe10acb135]
@startuml Email

class Email {
    - id: UUID
    - ownerRef: String
    - emailTo: String
    - subject: String
    - text: String
    - fileUrl: String
    - sendDate: LocalDateTime
}

enum EmailStatus {
    + PROCESSING
    + SENT
    + ERROR
}

enum EmailType {
    + DEFAULT
    + RESET_PASSWOR
}

Email "*" o-> "1" EmailType
Email "*" o-> "1" EmailStatus


@enduml

PlantUML version 1.2022.6(Tue Jun 21 14:34:49 BRT 2022)
(GPL source distribution)
Java Runtime: OpenJDK Runtime Environment
JVM: OpenJDK 64-Bit Server VM
Default Encoding: Cp1252
Language: pt
Country: BR
--></g></svg>